<?xml version="1.0" encoding="UTF-8" standalone="no"?>
<svg
   xmlns:dc="http://purl.org/dc/elements/1.1/"
   xmlns:cc="http://creativecommons.org/ns#"
   xmlns:rdf="http://www.w3.org/1999/02/22-rdf-syntax-ns#"
   xmlns:svg="http://www.w3.org/2000/svg"
   xmlns="http://www.w3.org/2000/svg"
   xmlns:sodipodi="http://sodipodi.sourceforge.net/DTD/sodipodi-0.dtd"
   xmlns:inkscape="http://www.inkscape.org/namespaces/inkscape"
   version="1.1"
   viewBox="0 0 717.719 532.46901"
   stroke-miterlimit="10"
   id="svg8594"
   inkscape:version="0.48.5 r10040"
   sodipodi:docname="TNM Staging Documentation.pdf"
   width="717.71899"
   height="532.46899"
   style="fill:none;stroke:none">
  <metadata
     id="metadata8801">
    <rdf:RDF>
      <cc:Work
         rdf:about="">
        <dc:format>image/svg+xml</dc:format>
        <dc:type
           rdf:resource="http://purl.org/dc/dcmitype/StillImage" />
        <dc:title></dc:title>
      </cc:Work>
    </rdf:RDF>
  </metadata>
  <defs
     id="defs8799">
    <marker
       inkscape:stockid="Arrow1Mend"
       orient="auto"
       refY="0"
       refX="0"
       id="Arrow1Mend"
       style="overflow:visible">
      <path
         id="path4565"
         d="M 0,0 5,-5 -12.5,0 5,5 0,0 z"
         style="stroke:#000000;stroke-width:1pt"
         transform="matrix(-0.4,0,0,-0.4,-4,0)"
         inkscape:connector-curvature="0" />
    </marker>
    <marker
       inkscape:stockid="Arrow2Lend"
       orient="auto"
       refY="0"
       refX="0"
       id="Arrow2Lend"
       style="overflow:visible">
      <path
         id="path4577"
         d="M 8.7185878,4.0337352 -2.2072895,0.01601326 8.7185884,-4.0017078 c -1.7454984,2.3720609 -1.7354408,5.6174519 -6e-7,8.035443 z"
         transform="matrix(-1.1,0,0,-1.1,-1.1,0)"
         inkscape:connector-curvature="0" />
    </marker>
    <marker
       inkscape:stockid="TriangleOutM"
       orient="auto"
       refY="0"
       refX="0"
       id="TriangleOutM"
       style="overflow:visible">
      <path
         id="path4701"
         d="m 5.77,0 -8.65,5 0,-10 8.65,5 z"
         style="stroke:#000000;stroke-width:1pt"
         transform="scale(0.4,0.4)"
         inkscape:connector-curvature="0" />
    </marker>
    <marker
       inkscape:stockid="TriangleOutL"
       orient="auto"
       refY="0"
       refX="0"
       id="TriangleOutL"
       style="overflow:visible">
      <path
         id="path4698"
         d="m 5.77,0 -8.65,5 0,-10 8.65,5 z"
         style="stroke:#000000;stroke-width:1pt"
         transform="scale(0.8,0.8)"
         inkscape:connector-curvature="0" />
    </marker>
    <marker
       inkscape:stockid="Arrow1Lend"
       orient="auto"
       refY="0"
       refX="0"
       id="Arrow1Lend"
       style="overflow:visible">
      <path
         id="path4110"
         d="M 0,0 5,-5 -12.5,0 5,5 0,0 z"
         style="stroke:#000000;stroke-width:1pt"
         transform="matrix(-0.8,0,0,-0.8,-10,0)"
         inkscape:connector-curvature="0" />
    </marker>
    <clipPath
       clipPathUnits="userSpaceOnUse"
       id="clipPath4198">
      <rect
         style="fill:#4a4945;fill-opacity:0.28000004;stroke:#000000;stroke-width:3;stroke-miterlimit:4;stroke-opacity:1;stroke-dasharray:none;stroke-dashoffset:0"
         id="rect4200"
         width="753.21399"
         height="49.453445"
         x="83.690437"
         y="528.52643" />
    </clipPath>
    <clipPath
       clipPathUnits="userSpaceOnUse"
       id="clipPath4306">
      <rect
         style="fill:none;stroke:#000000;stroke-width:1;stroke-miterlimit:4;stroke-opacity:1;stroke-dasharray:none;stroke-dashoffset:0"
         id="rect4308"
         width="246.57533"
         height="57.384804"
         x="95.940216"
         y="387.34744"
         ry="25.619593" />
    </clipPath>
    <clipPath
       clipPathUnits="userSpaceOnUse"
       id="clipPath4314">
      <rect
         ry="3.92346"
         y="463.94415"
         x="95.940216"
         height="8.7880774"
         width="246.57533"
         id="rect4316"
         style="fill:none;stroke:#000000;stroke-width:0.39133483;stroke-miterlimit:4;stroke-opacity:1;stroke-dasharray:none;stroke-dashoffset:0" />
    </clipPath>
  </defs>
  <sodipodi:namedview
     pagecolor="#ffffff"
     bordercolor="#666666"
     borderopacity="1"
     objecttolerance="10"
     gridtolerance="10"
     guidetolerance="10"
     inkscape:pageopacity="0"
     inkscape:pageshadow="2"
     inkscape:window-width="1835"
     inkscape:window-height="847"
     id="namedview8797"
     showgrid="false"
     fit-margin-top="0"
     fit-margin-left="0"
     fit-margin-right="0"
     fit-margin-bottom="0"
     inkscape:zoom="1.1152778"
     inkscape:cx="317.22184"
     inkscape:cy="284.93434"
     inkscape:window-x="100"
     inkscape:window-y="208"
     inkscape:window-maximized="0"
     inkscape:current-layer="g8599" />
  <clipPath
     id="p.0">
    <path
       d="M 0,0 960,0 960,720 0,720 0,0 z"
       id="path8597"
       inkscape:connector-curvature="0" />
  </clipPath>
  <g
     clip-path="url(#p.0)"
     id="g8599"
     transform="translate(-144.56251,-68.74357)">
    <path
       d="m 0,0 960,0 0,720 -960,0 z"
       id="path8601"
       inkscape:connector-curvature="0"
       style="fill:#000000;fill-opacity:0;fill-rule:nonzero" />
    <path
       d="m 224.53224,167.9937 c 0,16.80432 -6.97023,25.20713 -13.94046,33.60861 -6.97023,8.40149 -13.94047,16.80163 -13.94047,33.60326"
       id="path8603"
       inkscape:connector-curvature="0"
       style="fill:#000000;fill-opacity:0;fill-rule:nonzero" />
    <path
       d="m 536.53214,467.31736 c 0,11.69693 -16.2284,17.5441 -32.45681,23.39386 -16.22837,5.84977 -32.45678,11.70209 -32.45678,23.40417"
       id="path8703"
       inkscape:connector-curvature="0"
       style="fill:#000000;fill-opacity:0;fill-rule:nonzero" />
    <path
       d="m 686.96935,541.90202 156.53754,0 0,20.19929 -156.53754,0 z"
       id="path8709"
       inkscape:connector-curvature="0"
       style="fill:#000000;fill-opacity:0;fill-rule:nonzero" />
    <path
       d="m 672.24819,515.94011 150.42874,0 0,23.37767 -150.42874,0 z"
       id="path8753"
       inkscape:connector-curvature="0"
       style="fill:#000000;fill-opacity:0;fill-rule:nonzero" />
    <path
       d="m 678.28142,238.39206 100.08234,0 0,39.00002 -100.08234,0 z"
       id="path8757"
       inkscape:connector-curvature="0"
       style="fill:#000000;fill-opacity:0;fill-rule:nonzero" />
    <path
       d="m 722.79512,119.61952 0,-4.70179 5.34618,0 0,4.70179 -5.34618,0 z m 14.91165,0 0,-4.70179 5.34617,0 0,4.70179 -5.34617,0 z m 14.91164,0 0,-4.70179 5.34618,0 0,4.70179 -5.34618,0 z"
       id="path8759"
       inkscape:connector-curvature="0"
       style="fill:#000000;fill-rule:nonzero" />
    <path
       d="m 573.42025,81.864793 216.23676,0 0,31.103357 -216.23676,0 z"
       id="path8769"
       inkscape:connector-curvature="0"
       style="fill:#000000;fill-opacity:0;fill-rule:nonzero" />
    <path
       d="m 1077.8063,134.70237 0,-47.227329 6.647,0 q 1.747,0 2.6844,0.458496 1.2783,0.573152 2.1304,2.17796 0.8949,1.604814 1.4062,4.58518 0.5539,2.865734 0.5539,6.419243 0,6.07537 -1.4488,10.20202 -1.4061,4.12667 -5.1131,4.12667 l -4.5166,0 0,19.25774 -2.3434,0 z m 2.3434,-24.75996 4.5593,0 q 2.2156,0 3.1531,-2.29259 0.9799,-2.29258 0.9799,-6.30462 0,-2.980363 -0.5539,-5.043691 -0.5539,-2.17796 -1.4913,-2.865733 -0.5539,-0.4585 -2.1731,-0.4585 l -4.474,0 0,16.965164 z m 22.6765,20.51867 q -1.193,2.75111 -2.3009,3.8974 -1.1078,1.14629 -2.3861,1.14629 -2.0879,0 -3.2383,-2.7511 -1.1078,-2.75111 -1.1078,-7.10703 0,-2.52184 0.4261,-4.58518 0.426,-2.06332 1.1078,-3.32425 0.6817,-1.26092 1.5339,-1.9487 0.6392,-0.34382 1.9174,-0.8024 2.6418,-0.80241 3.8775,-2.06333 0,-1.1463 0,-1.49019 0,-3.55351 -0.5965,-4.92906 -0.8522,-2.06333 -2.4714,-2.06333 -1.5339,0 -2.2583,1.49018 -0.7243,1.37555 -1.0652,5.0437 l -2.0879,-0.68778 q 0.2555,-3.66814 0.8949,-5.8461 0.6817,-2.29259 1.9174,-3.43889 1.2782,-1.260918 2.8974,-1.260918 1.6617,0 2.6417,1.031668 1.0227,1.03166 1.4914,2.63647 0.5113,1.49018 0.6817,3.8974 0.1279,1.49019 0.1279,5.27296 l 0,7.7948 q 0,8.02406 0.1278,10.20202 0.1279,2.17796 0.5539,4.12666 l -2.2583,0 q -0.3408,-1.83407 -0.4261,-4.24129 z m -0.1705,-12.95313 q -1.1931,1.26093 -3.5366,2.17796 -1.3208,0.57316 -1.8748,1.26093 -0.5539,0.57315 -0.8522,1.83407 -0.2982,1.26092 -0.2982,2.7511 0,2.29259 0.6391,3.89741 0.6392,1.49018 1.9174,1.49018 1.2357,0 2.2157,-1.49018 0.98,-1.49019 1.4487,-4.01204 0.3409,-1.9487 0.3409,-5.73147 l 0,-2.17796 z m 10.7385,12.0361 0.2983,5.04369 q -0.9374,0.57315 -1.6192,0.57315 -1.193,0 -1.8322,-1.03166 -0.6391,-1.03167 -0.9374,-2.63648 -0.2555,-1.60481 -0.2555,-6.76314 l 0,-19.71626 -1.5765,0 0,-4.58518 1.5765,0 0,-8.482577 2.1731,-3.438883 0,11.92146 2.1731,0 0,4.58518 -2.1731,0 0,19.94552 q 0,2.52185 0.085,3.20963 0.1278,0.68777 0.3835,1.14629 0.2555,0.4585 0.7243,0.4585 0.3835,0 0.98,-0.22926 z m 2.3378,-35.420501 0,-6.648508 2.1731,0 0,6.648508 -2.1731,0 z m 0,40.578821 0,-34.2742 2.1731,0 0,34.2742 -2.1731,0 z m 14.3438,-11.00442 2.2583,0.68777 q -0.554,5.27295 -2.0027,8.25332 -1.4061,2.86573 -3.6218,2.86573 -2.7696,0 -4.4313,-4.58517 -1.6192,-4.69981 -1.6192,-13.06775 0,-8.59722 1.6618,-13.29702 1.6618,-4.814438 4.3035,-4.814438 2.5566,0 4.1331,4.699808 1.6191,4.58518 1.6191,13.06775 0,0.57316 0,1.60482 l -9.5018,0 q 0.1278,5.61684 1.1931,8.5972 1.0652,2.98037 2.6843,2.98037 1.1931,0 2.0027,-1.60481 0.8522,-1.71944 1.3209,-5.38758 z m -7.0732,-9.39962 7.1158,0 q -0.1278,-4.35592 -0.8096,-6.53388 -1.0226,-3.32425 -2.6844,-3.32425 -1.4913,0 -2.5139,2.75111 -0.98,2.63647 -1.1079,7.10702 z m 12.5282,20.40404 0,-34.2742 1.96,0 0,4.92907 q 1.3635,-5.616848 4.0478,-5.616848 1.1505,0 2.0879,1.146298 0.98,1.03166 1.4487,2.86573 0.4687,1.71944 0.6818,4.24129 0.1278,1.60482 0.1278,5.61684 l 0,21.09182 -2.173,0 0,-20.86256 q 0,-3.55351 -0.2556,-5.27295 -0.2555,-1.71944 -0.8948,-2.75111 -0.6391,-1.1463 -1.4913,-1.1463 -1.3635,0 -2.3861,2.40722 -0.98,2.29259 -0.98,8.9411 l 0,18.6846 -2.1731,0 z m 18.8768,-5.15832 0.2983,5.04369 q -0.9374,0.57315 -1.6192,0.57315 -1.193,0 -1.8322,-1.03166 -0.6391,-1.03167 -0.9373,-2.63648 -0.2556,-1.60481 -0.2556,-6.76314 l 0,-19.71626 -1.5765,0 0,-4.58518 1.5765,0 0,-8.482577 2.1731,-3.438883 0,11.92146 2.1731,0 0,4.58518 -2.1731,0 0,19.94552 q 0,2.52185 0.085,3.20963 0.1278,0.68777 0.3835,1.14629 0.2555,0.4585 0.7243,0.4585 0.3835,0 0.98,-0.22926 z m 7.7435,5.15832 6.7749,-47.227329 2.4713,0 7.201,47.227329 -2.6418,0 -2.0452,-14.32868 -7.3714,0 -1.9174,14.32868 -2.4714,0 z m 5.0705,-19.37238 5.9653,0 -1.8322,-13.18238 q -0.8522,-5.960733 -1.2356,-9.743504 -0.3409,4.58518 -0.9801,9.055734 l -1.9174,13.87015 z m 13.5581,19.37238 0,-34.2742 1.96,0 0,4.92907 q 1.3635,-5.616848 4.0479,-5.616848 1.1505,0 2.0878,1.146298 0.9801,1.03166 1.4488,2.86573 0.4687,1.71944 0.6817,4.24129 0.1278,1.60482 0.1278,5.61684 l 0,21.09182 -2.173,0 0,-20.86256 q 0,-3.55351 -0.2556,-5.27295 -0.2555,-1.71944 -0.8948,-2.75111 -0.6391,-1.1463 -1.4913,-1.1463 -1.3635,0 -2.3861,2.40722 -0.98,2.29259 -0.98,8.9411 l 0,18.6846 -2.1731,0 z m 14.1473,0 0,-34.2742 1.96,0 0,4.92907 q 1.3635,-5.616848 4.0479,-5.616848 1.1504,0 2.0878,1.146298 0.98,1.03166 1.4487,2.86573 0.4687,1.71944 0.6818,4.24129 0.1278,1.60482 0.1278,5.61684 l 0,21.09182 -2.173,0 0,-20.86256 q 0,-3.55351 -0.2555,-5.27295 -0.2555,-1.71944 -0.8949,-2.75111 -0.6391,-1.1463 -1.4913,-1.1463 -1.3635,0 -2.3861,2.40722 -0.98,2.29259 -0.98,8.9411 l 0,18.6846 -2.1731,0 z m 13.3377,-17.07978 q 0,-9.51425 1.96,-14.09943 1.6618,-3.782768 4.0053,-3.782768 2.6417,0 4.3035,4.585178 1.6618,4.58518 1.6618,12.72387 0,6.64851 -0.767,10.43127 -0.7244,3.78277 -2.1305,5.96073 -1.4061,2.06333 -3.0678,2.06333 -2.6844,0 -4.3462,-4.58517 -1.6191,-4.69981 -1.6191,-13.29701 z m 2.2157,0 q 0,6.53387 1.0652,9.85812 1.0652,3.20963 2.6844,3.20963 1.6191,0 2.6844,-3.20963 1.0652,-3.32425 1.0652,-10.08738 0,-6.30462 -1.0652,-9.62888 -1.0653,-3.32425 -2.6844,-3.32425 -1.6192,0 -2.6844,3.32425 -1.0652,3.20963 -1.0652,9.85814 z m 17.4708,11.92146 0.2982,5.04369 q -0.9374,0.57315 -1.6192,0.57315 -1.193,0 -1.8321,-1.03166 -0.6392,-1.03167 -0.9374,-2.63648 -0.2555,-1.60481 -0.2555,-6.76314 l 0,-19.71626 -1.5766,0 0,-4.58518 1.5766,0 0,-8.482577 2.173,-3.438883 0,11.92146 2.1731,0 0,4.58518 -2.1731,0 0,19.94552 q 0,2.52185 0.085,3.20963 0.1278,0.68777 0.3835,1.14629 0.2555,0.4585 0.7244,0.4585 0.3834,0 0.98,-0.22926 z m 10.6465,0.91703 q -1.193,2.75111 -2.3009,3.8974 -1.1078,1.14629 -2.3861,1.14629 -2.0878,0 -3.2383,-2.7511 -1.1079,-2.75111 -1.1079,-7.10703 0,-2.52184 0.4262,-4.58518 0.426,-2.06332 1.1078,-3.32425 0.6817,-1.26092 1.5339,-1.9487 0.6392,-0.34382 1.9174,-0.8024 2.6418,-0.80241 3.8775,-2.06333 0,-1.1463 0,-1.49019 0,-3.55351 -0.5965,-4.92906 -0.8522,-2.06333 -2.4714,-2.06333 -1.5339,0 -2.2583,1.49018 -0.7243,1.37555 -1.0652,5.0437 l -2.0879,-0.68778 q 0.2556,-3.66814 0.8948,-5.8461 0.6818,-2.29259 1.9175,-3.43889 1.2782,-1.260918 2.8974,-1.260918 1.6617,0 2.6417,1.031668 1.0227,1.03166 1.4914,2.63647 0.5113,1.49018 0.6817,3.8974 0.1279,1.49019 0.1279,5.27296 l 0,7.7948 q 0,8.02406 0.1278,10.20202 0.1278,2.17796 0.5539,4.12666 l -2.2583,0 q -0.3408,-1.83407 -0.4261,-4.24129 z m -0.1705,-12.95313 q -1.1931,1.26093 -3.5366,2.17796 -1.3208,0.57316 -1.8748,1.26093 -0.5539,0.57315 -0.8522,1.83407 -0.2982,1.26092 -0.2982,2.7511 0,2.29259 0.6391,3.89741 0.6391,1.49018 1.9174,1.49018 1.2357,0 2.2157,-1.49018 0.98,-1.49019 1.4487,-4.01204 0.3409,-1.9487 0.3409,-5.73147 l 0,-2.17796 z m 10.7385,12.0361 0.2983,5.04369 q -0.9374,0.57315 -1.6192,0.57315 -1.193,0 -1.8322,-1.03166 -0.6391,-1.03167 -0.9374,-2.63648 -0.2555,-1.60481 -0.2555,-6.76314 l 0,-19.71626 -1.5765,0 0,-4.58518 1.5765,0 0,-8.482577 2.1731,-3.438883 0,11.92146 2.1731,0 0,4.58518 -2.1731,0 0,19.94552 q 0,2.52185 0.085,3.20963 0.1278,0.68777 0.3835,1.14629 0.2555,0.4585 0.7243,0.4585 0.3835,0 0.98,-0.22926 z m 2.3379,-35.420501 0,-6.648508 2.1731,0 0,6.648508 -2.1731,0 z m 0,40.578821 0,-34.2742 2.1731,0 0,34.2742 -2.1731,0 z m 4.8419,-17.07978 q 0,-9.51425 1.96,-14.09943 1.6617,-3.782768 4.0053,-3.782768 2.6417,0 4.3035,4.585178 1.6618,4.58518 1.6618,12.72387 0,6.64851 -0.767,10.43127 -0.7244,3.78277 -2.1305,5.96073 -1.4061,2.06333 -3.0678,2.06333 -2.6845,0 -4.3462,-4.58517 -1.6191,-4.69981 -1.6191,-13.29701 z m 2.2157,0 q 0,6.53387 1.0651,9.85812 1.0653,3.20963 2.6845,3.20963 1.6191,0 2.6843,-3.20963 1.0653,-3.32425 1.0653,-10.08738 0,-6.30462 -1.0653,-9.62888 -1.0652,-3.32425 -2.6843,-3.32425 -1.6192,0 -2.6845,3.32425 -1.0651,3.20963 -1.0651,9.85814 z m 12.7411,17.07978 0,-34.2742 1.96,0 0,4.92907 q 1.3635,-5.616848 4.0479,-5.616848 1.1505,0 2.0879,1.146298 0.98,1.03166 1.4487,2.86573 0.4687,1.71944 0.6817,4.24129 0.1279,1.60482 0.1279,5.61684 l 0,21.09182 -2.1731,0 0,-20.86256 q 0,-3.55351 -0.2555,-5.27295 -0.2555,-1.71944 -0.8948,-2.75111 -0.6392,-1.1463 -1.4913,-1.1463 -1.3635,0 -2.3862,2.40722 -0.98,2.29259 -0.98,8.9411 l 0,18.6846 -2.173,0 z m 13.2951,-10.20202 2.1305,-0.91703 q 0.1705,3.43888 0.98,5.27295 0.8522,1.83407 2.3009,1.83407 1.4913,0 2.2157,-1.60481 0.7243,-1.60482 0.7243,-3.78278 0,-2.06333 -0.6391,-3.09499 -0.4687,-0.8024 -2.2157,-2.06333 -2.3861,-1.60481 -3.3235,-2.7511 -0.8948,-1.1463 -1.3635,-3.20963 -0.4687,-2.06333 -0.4687,-4.58517 0,-2.2926 0.3835,-4.24129 0.3834,-1.94871 1.0652,-3.32426 0.5113,-0.91704 1.3635,-1.60481 0.8948,-0.687778 1.8748,-0.687778 1.4913,0 2.5992,1.146298 1.1504,1.14629 1.7043,3.09499 0.5539,1.9487 0.767,5.27295 l -2.1304,0.80241 q -0.1279,-2.63647 -0.8522,-4.12666 -0.6818,-1.49018 -1.9175,-1.49018 -1.4913,0 -2.1304,1.37555 -0.6392,1.26092 -0.6392,3.095 0,1.14629 0.2555,1.9487 0.2556,1.03166 0.8522,1.60481 0.2983,0.34383 1.8748,1.49018 2.3009,1.60482 3.1958,2.63648 0.9373,1.03167 1.4487,3.09499 0.5113,1.9487 0.5113,4.92907 0,2.98036 -0.6392,5.50221 -0.6391,2.52185 -1.8322,4.01203 -1.1504,1.37555 -2.6844,1.37555 -2.4713,0 -3.7922,-2.7511 -1.2783,-2.86574 -1.6191,-8.25332 z m 20.8941,10.20202 0,-47.227329 6.0505,0 q 2.0879,0 3.1531,0.687777 1.4913,0.917038 2.5566,3.324251 1.4061,3.209626 2.0878,8.138691 0.6818,4.81444 0.6818,11.23369 0,5.38758 -0.4688,9.51424 -0.4686,4.12666 -1.193,6.87777 -0.7244,2.7511 -1.6192,4.35592 -0.8521,1.49018 -2.0878,2.29258 -1.1931,0.80241 -2.8122,0.80241 l -6.3488,0 z m 2.3435,-5.61684 3.7496,0 q 1.747,0 2.727,-0.80241 0.98,-0.91703 1.5766,-2.52184 0.8095,-2.17796 1.2782,-5.96073 0.4687,-3.78278 0.4687,-9.05573 0,-7.45092 -0.8948,-11.348313 -0.8947,-4.012035 -2.2156,-5.387586 -0.9374,-1.031669 -2.9827,-1.031669 l -3.707,0 0,36.108278 z m 24.08,1.37555 q -1.1931,2.75111 -2.3009,3.8974 -1.1079,1.14629 -2.3861,1.14629 -2.0879,0 -3.2383,-2.7511 -1.1079,-2.75111 -1.1079,-7.10703 0,-2.52184 0.4261,-4.58518 0.4261,-2.06332 1.1079,-3.32425 0.6817,-1.26092 1.5339,-1.9487 0.6391,-0.34382 1.9174,-0.8024 2.6418,-0.80241 3.8774,-2.06333 0,-1.1463 0,-1.49019 0,-3.55351 -0.5965,-4.92906 -0.8522,-2.06333 -2.4713,-2.06333 -1.5339,0 -2.2583,1.49018 -0.7244,1.37555 -1.0652,5.0437 l -2.0879,-0.68778 q 0.2555,-3.66814 0.8948,-5.8461 0.6817,-2.29259 1.9174,-3.43889 1.2783,-1.260918 2.8975,-1.260918 1.6617,0 2.6417,1.031668 1.0226,1.03166 1.4914,2.63647 0.5113,1.49018 0.6817,3.8974 0.1278,1.49019 0.1278,5.27296 l 0,7.7948 q 0,8.02406 0.1279,10.20202 0.1278,2.17796 0.5539,4.12666 l -2.2583,0 q -0.3409,-1.83407 -0.4261,-4.24129 z m -0.1705,-12.95313 q -1.1931,1.26093 -3.5366,2.17796 -1.3209,0.57316 -1.8748,1.26093 -0.5539,0.57315 -0.8522,1.83407 -0.2983,1.26092 -0.2983,2.7511 0,2.29259 0.6392,3.89741 0.6391,1.49018 1.9174,1.49018 1.2357,0 2.2157,-1.49018 0.98,-1.49019 1.4487,-4.01204 0.3409,-1.9487 0.3409,-5.73147 l 0,-2.17796 z m 10.7385,12.0361 0.2983,5.04369 q -0.9374,0.57315 -1.6192,0.57315 -1.193,0 -1.8322,-1.03166 -0.6391,-1.03167 -0.9374,-2.63648 -0.2555,-1.60481 -0.2555,-6.76314 l 0,-19.71626 -1.5766,0 0,-4.58518 1.5766,0 0,-8.482577 2.1731,-3.438883 0,11.92146 2.1731,0 0,4.58518 -2.1731,0 0,19.94552 q 0,2.52185 0.085,3.20963 0.1278,0.68777 0.3835,1.14629 0.2555,0.4585 0.7244,0.4585 0.3834,0 0.98,-0.22926 z m 10.6467,0.91703 q -1.1931,2.75111 -2.3009,3.8974 -1.1079,1.14629 -2.3862,1.14629 -2.0878,0 -3.2383,-2.7511 -1.1078,-2.75111 -1.1078,-7.10703 0,-2.52184 0.4261,-4.58518 0.4261,-2.06332 1.1078,-3.32425 0.6818,-1.26092 1.5339,-1.9487 0.6392,-0.34382 1.9175,-0.8024 2.6418,-0.80241 3.8774,-2.06333 0,-1.1463 0,-1.49019 0,-3.55351 -0.5965,-4.92906 -0.8522,-2.06333 -2.4713,-2.06333 -1.534,0 -2.2583,1.49018 -0.7244,1.37555 -1.0653,5.0437 l -2.0878,-0.68778 q 0.2555,-3.66814 0.8948,-5.8461 0.6817,-2.29259 1.9174,-3.43889 1.2783,-1.260918 2.8974,-1.260918 1.6618,0 2.6418,1.031668 1.0226,1.03166 1.4913,2.63647 0.5113,1.49018 0.6818,3.8974 0.1278,1.49019 0.1278,5.27296 l 0,7.7948 q 0,8.02406 0.1278,10.20202 0.1279,2.17796 0.554,4.12666 l -2.2583,0 q -0.3409,-1.83407 -0.4261,-4.24129 z m -0.1706,-12.95313 q -1.193,1.26093 -3.5365,2.17796 -1.321,0.57316 -1.8749,1.26093 -0.5539,0.57315 -0.8521,1.83407 -0.2983,1.26092 -0.2983,2.7511 0,2.29259 0.6392,3.89741 0.6391,1.49018 1.9173,1.49018 1.2357,0 2.2158,-1.49018 0.98,-1.49019 1.4486,-4.01204 0.3409,-1.9487 0.3409,-5.73147 l 0,-2.17796 z m 12.565,2.06333 2.1731,-0.57321 q 0.1705,3.55351 0.7244,5.8461 0.5965,2.29259 1.7895,3.66814 1.1931,1.37555 2.6844,1.37555 1.3209,0 2.3435,-1.03166 1.0227,-1.03167 1.534,-2.86573 0.5113,-1.94871 0.5113,-4.12667 0,-2.17796 -0.5113,-3.78276 -0.4687,-1.71945 -1.5766,-2.86575 -0.6817,-0.8024 -3.1105,-2.29258 -2.4287,-1.60481 -3.4087,-2.98037 -1.2357,-1.71944 -1.8748,-4.35591 -0.5965,-2.63648 -0.5965,-5.960734 0,-3.553514 0.7243,-6.648508 0.767,-3.094998 2.2157,-4.699809 1.4487,-1.604814 3.2383,-1.604814 1.96,0 3.4514,1.719443 1.4913,1.604814 2.2583,4.929065 0.8095,3.324258 0.8947,7.450917 l -2.2583,0.45849 q -0.1705,-4.470539 -1.193,-6.76313 -1.0226,-2.292589 -3.0679,-2.292589 -2.0878,0 -3.0679,2.063328 -0.9799,2.063328 -0.9799,5.043694 0,2.521857 0.6817,4.126667 0.6817,1.71944 3.494,3.43888 2.8548,1.71944 3.92,2.98036 1.534,1.83407 2.2583,4.81444 0.7244,2.86574 0.7244,6.76314 0,3.66814 -0.8096,7.10702 -0.8096,3.32426 -2.3009,5.15833 -1.4913,1.83407 -3.3661,1.83407 -2.3862,0 -4.0053,-1.83407 -1.6192,-1.9487 -2.5566,-5.61685 -0.8948,-3.78277 -0.9374,-8.48258 z m 22.2078,9.97277 0.2982,5.04369 q -0.9374,0.57315 -1.6191,0.57315 -1.1931,0 -1.8322,-1.03166 -0.6392,-1.03167 -0.9374,-2.63648 -0.2555,-1.60481 -0.2555,-6.76314 l 0,-19.71626 -1.5766,0 0,-4.58518 1.5766,0 0,-8.482577 2.173,-3.438883 0,11.92146 2.1731,0 0,4.58518 -2.1731,0 0,19.94552 q 0,2.52185 0.085,3.20963 0.1279,0.68777 0.3835,1.14629 0.2555,0.4585 0.7244,0.4585 0.3834,0 0.98,-0.22926 z m 2.2951,5.15832 0,-34.2742 1.9601,0 0,5.27295 q 0.7243,-3.66814 1.3635,-4.81443 0.6391,-1.146298 1.406,-1.146298 1.0653,0 2.2157,1.834068 l -0.7669,5.38758 q -0.767,-1.26092 -1.5766,-1.26092 -0.6817,0 -1.2782,1.1463 -0.554,1.14629 -0.8096,3.20962 -0.3409,3.095 -0.3409,6.76314 l 0,17.88219 -2.1731,0 z m 16.8651,0 0,-5.0437 q -1.4914,5.8461 -4.0479,5.8461 -1.1079,0 -2.0879,-1.14629 -0.98,-1.26092 -1.4913,-2.98036 -0.4687,-1.71945 -0.6391,-4.24129 -0.1279,-1.71945 -0.1279,-5.50222 l 0,-21.20644 2.1305,0 0,19.02848 q 0,4.58518 0.1705,6.07536 0.1705,2.29259 0.8096,3.66815 0.6817,1.26092 1.6617,1.26092 0.98,0 1.8322,-1.26092 0.8522,-1.37556 1.1931,-3.66815 0.3409,-2.29259 0.3409,-6.76313 l 0,-18.34071 2.173,0 0,34.2742 -1.9174,0 z m 14.1046,-12.49461 2.1305,0.68778 q -0.3409,5.96073 -1.7896,9.28498 -1.4487,3.32425 -3.5366,3.32425 -2.5991,0 -4.1757,-4.58517 -1.5765,-4.58518 -1.5765,-13.18239 0,-5.61684 0.6817,-9.7435 0.6818,-4.12665 2.0453,-6.18999 1.4061,-2.063328 3.0679,-2.063328 2.0452,0 3.3661,2.865738 1.3209,2.75111 1.7043,7.90943 l -2.0878,0.91703 q -0.2983,-3.43888 -1.0653,-5.15832 -0.7669,-1.83407 -1.8322,-1.83407 -1.6617,0 -2.6843,3.20962 -0.98,3.095 -0.98,9.85813 0,6.9924 0.98,10.08739 0.98,3.095 2.5565,3.095 1.2783,0 2.1305,-2.06333 0.8522,-2.06333 1.0652,-6.41925 z m 9.1397,7.33629 0.2983,5.04369 q -0.9374,0.57315 -1.6192,0.57315 -1.1931,0 -1.8322,-1.03166 -0.6391,-1.03167 -0.9374,-2.63648 -0.2555,-1.60481 -0.2555,-6.76314 l 0,-19.71626 -1.5766,0 0,-4.58518 1.5766,0 0,-8.482577 2.1731,-3.438883 0,11.92146 2.1731,0 0,4.58518 -2.1731,0 0,19.94552 q 0,2.52185 0.085,3.20963 0.1278,0.68777 0.3835,1.14629 0.2555,0.4585 0.7243,0.4585 0.3835,0 0.98,-0.22926 z m 10.6892,5.15832 0,-5.0437 q -1.4914,5.8461 -4.0479,5.8461 -1.1078,0 -2.0879,-1.14629 -0.98,-1.26092 -1.4913,-2.98036 -0.4687,-1.71945 -0.6391,-4.24129 -0.1278,-1.71945 -0.1278,-5.50222 l 0,-21.20644 2.1304,0 0,19.02848 q 0,4.58518 0.1706,6.07536 0.1705,2.29259 0.8095,3.66815 0.6818,1.26092 1.6618,1.26092 0.98,0 1.8322,-1.26092 0.8522,-1.37556 1.1931,-3.66815 0.3408,-2.29259 0.3408,-6.76313 l 0,-18.34071 2.1731,0 0,34.2742 -1.9174,0 z m 5.7533,0 0,-34.2742 1.96,0 0,5.27295 q 0.7243,-3.66814 1.3634,-4.81443 0.6392,-1.146298 1.4062,-1.146298 1.0652,0 2.2157,1.834068 l -0.767,5.38758 q -0.767,-1.26092 -1.5766,-1.26092 -0.6817,0 -1.2783,1.1463 -0.5539,1.14629 -0.8095,3.20962 -0.3409,3.095 -0.3409,6.76314 l 0,17.88219 -2.173,0 z m 17.2058,-11.00442 2.2583,0.68777 q -0.5539,5.27295 -2.0026,8.25332 -1.4061,2.86573 -3.6218,2.86573 -2.7696,0 -4.4314,-4.58517 -1.6191,-4.69981 -1.6191,-13.06775 0,-8.59722 1.6618,-13.29702 1.6617,-4.814438 4.3035,-4.814438 2.5565,0 4.1331,4.699808 1.6191,4.58518 1.6191,13.06775 0,0.57316 0,1.60482 l -9.5018,0 q 0.1278,5.61684 1.193,8.5972 1.0653,2.98037 2.6844,2.98037 1.1931,0 2.0027,-1.60481 0.8521,-1.71944 1.3208,-5.38758 z m -7.0731,-9.39962 7.1157,0 q -0.1278,-4.35592 -0.8095,-6.53388 -1.0227,-3.32425 -2.6844,-3.32425 -1.4913,0 -2.5139,2.75111 -0.9801,2.63647 -1.1079,7.10702 z"
       id="path8771"
       inkscape:connector-curvature="0"
       style="fill:#000000;fill-rule:nonzero;stroke:#000000;stroke-width:2.77281094;stroke-opacity:0.42222224" />
    <path
       d="m 292.57217,542 329.41733,0 0,59.21258 -329.41733,0 z"
       id="path8779"
       inkscape:connector-curvature="0"
       style="fill:#000000;fill-opacity:0;fill-rule:nonzero" />
    <rect
       style="fill:#4a4945;fill-opacity:0.24888892;stroke:#000000;stroke-width:1.16012573;stroke-opacity:1"
       id="rect3398"
       width="687.77606"
       height="72.278114"
       x="103.97902"
       y="552.61914"
       ry="0"
       clip-path="url(#clipPath4198)"
       transform="translate(69.937734,-483.28768)" />
    <path
       style="fill:none;stroke:#000000;stroke-width:1px;stroke-linecap:butt;stroke-linejoin:miter;stroke-opacity:1"
       d="m 287.21543,94.692177 0,46.917363"
       id="path4184"
       inkscape:connector-curvature="0" />
    <path
       inkscape:connector-curvature="0"
       id="path4186"
       d="m 401.21543,94.692177 0,46.917363"
       style="fill:none;stroke:#000000;stroke-width:1px;stroke-linecap:butt;stroke-linejoin:miter;stroke-opacity:1" />
    <path
       style="fill:none;stroke:#000000;stroke-width:1px;stroke-linecap:butt;stroke-linejoin:miter;stroke-opacity:1"
       d="m 507.21543,94.692177 0,46.917363"
       id="path4188"
       inkscape:connector-curvature="0" />
    <path
       inkscape:connector-curvature="0"
       id="path4190"
       d="m 623.21543,94.692177 0,46.917363"
       style="fill:none;stroke:#000000;stroke-width:1px;stroke-linecap:butt;stroke-linejoin:miter;stroke-opacity:1" />
    <text
       xml:space="preserve"
       style="font-size:24px;font-style:normal;font-variant:normal;font-weight:bold;font-stretch:normal;text-align:start;line-height:125%;letter-spacing:0px;word-spacing:0px;writing-mode:lr-tb;text-anchor:start;fill:#000000;fill-opacity:1;stroke:none;font-family:Consolas;-inkscape-font-specification:Consolas Bold"
       x="377.67896"
       y="88.207695"
       id="text4192"
       sodipodi:linespacing="125%"><tspan
         sodipodi:role="line"
         id="tspan4194"
         x="377.67896"
         y="88.207695">List &lt;AnnotationsAIM4&gt;</tspan></text>
    <rect
       clip-path="none"
       ry="0"
       y="69.331467"
       x="173.91675"
       height="72.278114"
       width="687.77606"
       id="rect4202"
       style="fill:none;stroke:#000000;stroke-width:1.16012573;stroke-opacity:1" />
    <text
       xml:space="preserve"
       style="font-size:14px;font-style:normal;font-variant:normal;font-weight:bold;font-stretch:normal;text-align:start;line-height:125%;letter-spacing:0px;word-spacing:0px;writing-mode:lr-tb;text-anchor:start;fill:#000000;fill-opacity:1;stroke:none;font-family:Consolas;-inkscape-font-specification:Consolas Bold"
       x="189.3291"
       y="114.24883"
       id="text4206"
       sodipodi:linespacing="125%"><tspan
         sodipodi:role="line"
         id="tspan4232"
         x="189.3291"
         y="114.24883">Annotation</tspan><tspan
         sodipodi:role="line"
         id="tspan4234"
         x="189.3291"
         y="131.74884">Collection-1</tspan></text>
    <text
       sodipodi:linespacing="125%"
       id="text4214"
       y="114.24883"
       x="409.3291"
       style="font-size:14px;font-style:normal;font-variant:normal;font-weight:bold;font-stretch:normal;text-align:start;line-height:125%;letter-spacing:0px;word-spacing:0px;writing-mode:lr-tb;text-anchor:start;fill:#000000;fill-opacity:1;stroke:none;font-family:Consolas;-inkscape-font-specification:Consolas Bold"
       xml:space="preserve"><tspan
         sodipodi:role="line"
         id="tspan4240"
         x="409.3291"
         y="114.24883">Annotation</tspan><tspan
         sodipodi:role="line"
         id="tspan4242"
         x="409.3291"
         y="131.74884">Collection-3</tspan></text>
    <text
       xml:space="preserve"
       style="font-size:14px;font-style:normal;font-variant:normal;font-weight:bold;font-stretch:normal;text-align:start;line-height:125%;letter-spacing:0px;word-spacing:0px;writing-mode:lr-tb;text-anchor:start;fill:#000000;fill-opacity:1;stroke:none;font-family:Consolas;-inkscape-font-specification:Consolas Bold"
       x="303.3291"
       y="114.24883"
       id="text4220"
       sodipodi:linespacing="125%"><tspan
         sodipodi:role="line"
         id="tspan4236"
         x="303.3291"
         y="114.24883">Annotation</tspan><tspan
         sodipodi:role="line"
         id="tspan4238"
         x="303.3291"
         y="131.74884">Collection-2</tspan></text>
    <text
       xml:space="preserve"
       style="font-size:14px;font-style:normal;font-variant:normal;font-weight:bold;font-stretch:normal;text-align:start;line-height:125%;letter-spacing:0px;word-spacing:0px;writing-mode:lr-tb;text-anchor:start;fill:#000000;fill-opacity:1;stroke:none;font-family:Consolas;-inkscape-font-specification:Consolas Bold"
       x="521.3291"
       y="114.24883"
       id="text4226"
       sodipodi:linespacing="125%"><tspan
         sodipodi:role="line"
         id="tspan4244"
         x="521.3291"
         y="114.24883">Annotation</tspan><tspan
         sodipodi:role="line"
         id="tspan4246"
         x="521.3291"
         y="131.74884">Collection-4</tspan></text>
    <rect
       style="fill:#4a4945;fill-opacity:0.24888892;stroke:#000000;stroke-opacity:1"
       id="rect4248"
       width="170.36115"
       height="140.58636"
       x="134.49564"
       y="398.54431"
       ry="25.619593"
       clip-path="url(#clipPath4306)"
       transform="matrix(1,0,0,0.89605204,10.759651,-111.00052)" />
    <text
       sodipodi:linespacing="125%"
       id="text4258"
       y="273.29242"
       x="149.12239"
       style="font-size:14px;font-style:normal;font-variant:normal;font-weight:bold;font-stretch:normal;text-align:start;line-height:125%;letter-spacing:0px;word-spacing:0px;writing-mode:lr-tb;text-anchor:start;fill:#000000;fill-opacity:1;stroke:none;font-family:Consolas;-inkscape-font-specification:Consolas Bold"
       xml:space="preserve"><tspan
         sodipodi:role="line"
         id="tspan4346"
         x="149.12239"
         y="273.29242">Annotation Collection</tspan></text>
    <text
       xml:space="preserve"
       style="font-size:40px;font-style:normal;font-weight:normal;line-height:125%;letter-spacing:0px;word-spacing:0px;fill:#000000;fill-opacity:1;stroke:none;font-family:Sans"
       x="51.108341"
       y="501.22043"
       id="text4272"
       sodipodi:linespacing="125%"
       transform="translate(-4.9989777e-6,0)"><tspan
         sodipodi:role="line"
         id="tspan4274"
         x="51.108341"
         y="501.22043" /></text>
    <text
       xml:space="preserve"
       style="font-size:14px;font-style:normal;font-variant:normal;font-weight:bold;font-stretch:normal;text-align:start;line-height:125%;letter-spacing:0px;word-spacing:0px;writing-mode:lr-tb;text-anchor:start;fill:#000000;fill-opacity:1;stroke:none;font-family:Consolas;-inkscape-font-specification:Consolas Bold"
       x="149.12239"
       y="369.29242"
       id="text4276"
       sodipodi:linespacing="125%"><tspan
         sodipodi:role="line"
         id="tspan4300"
         x="149.12239"
         y="369.29242">List&lt;ImageAnnotation&gt;</tspan><tspan
         sodipodi:role="line"
         id="tspan4302"
         x="149.12239"
         y="386.79242"></tspan></text>
    <text
       sodipodi:linespacing="125%"
       id="text4282"
       y="335.29242"
       x="187.12239"
       style="font-size:14px;font-style:normal;font-variant:normal;font-weight:bold;font-stretch:normal;text-align:start;line-height:125%;letter-spacing:0px;word-spacing:0px;writing-mode:lr-tb;text-anchor:start;fill:#000000;fill-opacity:1;stroke:none;font-family:Consolas;-inkscape-font-specification:Consolas Bold"
       xml:space="preserve"><tspan
         sodipodi:role="line"
         id="tspan4296"
         x="187.12239"
         y="335.29242">Person =</tspan></text>
    <text
       xml:space="preserve"
       style="font-size:14px;font-style:normal;font-variant:normal;font-weight:bold;font-stretch:normal;text-align:start;line-height:125%;letter-spacing:0px;word-spacing:0px;writing-mode:lr-tb;text-anchor:start;fill:#000000;fill-opacity:1;stroke:none;font-family:Consolas;-inkscape-font-specification:Consolas Bold"
       x="191.12239"
       y="301.29242"
       id="text4288"
       sodipodi:linespacing="125%"><tspan
         sodipodi:role="line"
         id="tspan4298"
         x="191.12239"
         y="301.29242">Uid =</tspan></text>
    <rect
       clip-path="none"
       ry="24.722952"
       y="246.11592"
       x="145.25529"
       height="140.58636"
       width="170.36115"
       id="rect4310"
       style="fill:none;stroke:#000000;stroke-width:1.35816848;stroke-miterlimit:4;stroke-opacity:1;stroke-dasharray:none;stroke-dashoffset:0" />
    <rect
       style="fill:#4a4945;fill-opacity:0.24888892;stroke:none"
       id="rect4318"
       width="170.36115"
       height="140.58636"
       x="134.49564"
       y="398.54431"
       ry="25.619593"
       clip-path="url(#clipPath4314)"
       transform="translate(10.759651,-152.42839)" />
    <rect
       transform="translate(10.759651,-122.42839)"
       clip-path="url(#clipPath4314)"
       ry="25.619593"
       y="398.54431"
       x="134.49564"
       height="140.58636"
       width="170.36115"
       id="rect4322"
       style="fill:#4a4945;fill-opacity:0.24888892;stroke:#000000;stroke-width:1.35816848;stroke-miterlimit:4;stroke-opacity:1;stroke-dasharray:none;stroke-dashoffset:0" />
    <path
       style="fill:none;stroke:#000000;stroke-width:1.93974113;stroke-linecap:butt;stroke-linejoin:miter;stroke-miterlimit:10;stroke-opacity:1;stroke-dasharray:none;marker-end:url(#Arrow1Mend)"
       d="m 231.3325,143.84186 -13.44957,97.83686"
       id="path4348"
       inkscape:connector-curvature="0" />
    <path
       style="fill:#000000;fill-rule:nonzero"
       inkscape:connector-curvature="0"
       id="path6130"
       d="m 740.49342,299.81319 0,-3.0097 3.377,0 0,3.0097 -3.377,0 z m 9.4192,0 0,-3.0097 3.37699,0 0,3.0097 -3.37699,0 z m 9.41919,0 0,-3.0097 3.377,0 0,3.0097 -3.377,0 z" />
    <path
       style="fill:#000000;fill-opacity:0;fill-rule:nonzero"
       inkscape:connector-curvature="0"
       id="path6132"
       d="m 646.13823,275.64571 136.58964,0 0,19.90983 -136.58964,0 z" />
    <rect
       transform="matrix(0.63166707,0,0,0.64011784,328.10491,-86.11846)"
       clip-path="url(#clipPath4198)"
       ry="0"
       y="552.61914"
       x="103.97902"
       height="72.278114"
       width="687.77606"
       id="rect6134"
       style="fill:#4a4945;fill-opacity:0.24888892;stroke:#000000;stroke-width:1.16012573;stroke-opacity:1" />
    <path
       inkscape:connector-curvature="0"
       id="path6136"
       d="m 465.35207,283.85676 0,30.03264"
       style="fill:none;stroke:#000000;stroke-width:0.63587844px;stroke-linecap:butt;stroke-linejoin:miter;stroke-opacity:1" />
    <path
       style="fill:none;stroke:#000000;stroke-width:0.63587844px;stroke-linecap:butt;stroke-linejoin:miter;stroke-opacity:1"
       d="m 537.36212,283.85676 0,30.03264"
       id="path6138"
       inkscape:connector-curvature="0" />
    <path
       inkscape:connector-curvature="0"
       id="path6140"
       d="m 604.31882,283.85676 0,30.03264"
       style="fill:none;stroke:#000000;stroke-width:0.63587844px;stroke-linecap:butt;stroke-linejoin:miter;stroke-opacity:1" />
    <path
       style="fill:none;stroke:#000000;stroke-width:0.63587844px;stroke-linecap:butt;stroke-linejoin:miter;stroke-opacity:1"
       d="m 677.59221,283.85676 0,30.03264"
       id="path6142"
       inkscape:connector-curvature="0" />
    <text
       sodipodi:linespacing="125%"
       id="text6144"
       y="277.85364"
       x="525.9787"
       style="font-size:15.2610817px;font-style:normal;font-variant:normal;font-weight:bold;font-stretch:normal;text-align:start;line-height:125%;letter-spacing:0px;word-spacing:0px;writing-mode:lr-tb;text-anchor:start;fill:#000000;fill-opacity:1;stroke:none;font-family:Consolas;-inkscape-font-specification:Consolas Bold"
       xml:space="preserve"
       transform="scale(0.99337706,1.0066671)"><tspan
         sodipodi:role="line"
         id="tspan6174"
         x="525.9787"
         y="277.85364">List &lt;ImageAnnotation&gt;</tspan></text>
    <rect
       style="fill:none;stroke:#000000;stroke-width:0.73769891;stroke-opacity:1"
       id="rect6148"
       width="434.44547"
       height="46.26651"
       x="393.78503"
       y="267.62292"
       ry="0"
       clip-path="none" />
    <text
       sodipodi:linespacing="125%"
       id="text6150"
       y="294.41263"
       x="402.1843"
       style="font-size:8.90229797px;font-style:normal;font-variant:normal;font-weight:bold;font-stretch:normal;text-align:start;line-height:125%;letter-spacing:0px;word-spacing:0px;writing-mode:lr-tb;text-anchor:start;fill:#000000;fill-opacity:1;stroke:none;font-family:Consolas;-inkscape-font-specification:Consolas Bold"
       xml:space="preserve"
       transform="scale(0.99337706,1.0066671)"><tspan
         sodipodi:role="line"
         id="tspan6176"
         x="402.1843"
         y="294.41263">Image </tspan><tspan
         sodipodi:role="line"
         id="tspan6178"
         x="402.1843"
         y="305.5405">Annotation -1</tspan></text>
    <text
       xml:space="preserve"
       style="font-size:8.90229797px;font-style:normal;font-variant:normal;font-weight:bold;font-stretch:normal;text-align:start;line-height:125%;letter-spacing:0px;word-spacing:0px;writing-mode:lr-tb;text-anchor:start;fill:#000000;fill-opacity:1;stroke:none;font-family:Consolas;-inkscape-font-specification:Consolas Bold"
       x="546.104"
       y="294.41263"
       id="text6156"
       sodipodi:linespacing="125%"
       transform="scale(0.99337706,1.0066671)"><tspan
         sodipodi:role="line"
         id="tspan6184"
         x="546.104"
         y="294.41263">Image </tspan><tspan
         sodipodi:role="line"
         id="tspan6186"
         x="546.104"
         y="305.5405">Annotation-3</tspan></text>
    <text
       sodipodi:linespacing="125%"
       id="text6162"
       y="294.41263"
       x="478.70139"
       style="font-size:8.90229797px;font-style:normal;font-variant:normal;font-weight:bold;font-stretch:normal;text-align:start;line-height:125%;letter-spacing:0px;word-spacing:0px;writing-mode:lr-tb;text-anchor:start;fill:#000000;fill-opacity:1;stroke:none;font-family:Consolas;-inkscape-font-specification:Consolas Bold"
       xml:space="preserve"
       transform="scale(0.99337706,1.0066671)"><tspan
         sodipodi:role="line"
         id="tspan6180"
         x="478.70139"
         y="294.41263">Image </tspan><tspan
         sodipodi:role="line"
         id="tspan6182"
         x="478.70139"
         y="305.5405">Annotation-2</tspan></text>
    <text
       sodipodi:linespacing="125%"
       id="text6168"
       y="294.41263"
       x="617.32214"
       style="font-size:8.90229797px;font-style:normal;font-variant:normal;font-weight:bold;font-stretch:normal;text-align:start;line-height:125%;letter-spacing:0px;word-spacing:0px;writing-mode:lr-tb;text-anchor:start;fill:#000000;fill-opacity:1;stroke:none;font-family:Consolas;-inkscape-font-specification:Consolas Bold"
       xml:space="preserve"
       transform="scale(0.99337706,1.0066671)"><tspan
         sodipodi:role="line"
         id="tspan6188"
         x="617.32214"
         y="294.41263">Image</tspan><tspan
         sodipodi:role="line"
         id="tspan6190"
         x="617.32214"
         y="305.5405">Annotation-4</tspan></text>
    <path
       inkscape:connector-curvature="0"
       id="path6192"
       d="m 315.89593,364.99896 74.74419,-64.74972"
       style="fill:none;stroke:#000000;stroke-width:1.93974113;stroke-linecap:butt;stroke-linejoin:miter;stroke-miterlimit:10;stroke-opacity:1;stroke-dasharray:none;marker-end:url(#Arrow1Mend)"
       sodipodi:nodetypes="cc" />
    <rect
       transform="matrix(0.76491475,0,0,0.71505463,240.38486,127.05484)"
       clip-path="url(#clipPath4306)"
       ry="25.619593"
       y="398.54431"
       x="134.49564"
       height="140.58636"
       width="170.36115"
       id="rect6194"
       style="fill:#4a4945;fill-opacity:0.24888892;stroke:#000000;stroke-opacity:1" />
    <text
       xml:space="preserve"
       style="font-size:10.93799019px;font-style:normal;font-variant:normal;font-weight:bold;font-stretch:normal;text-align:start;line-height:125%;letter-spacing:0px;word-spacing:0px;writing-mode:lr-tb;text-anchor:start;fill:#000000;fill-opacity:1;stroke:none;font-family:Consolas;-inkscape-font-specification:Consolas Bold"
       x="365.88708"
       y="424.63501"
       id="text6196"
       sodipodi:linespacing="125%"
       transform="scale(0.97904693,1.0214015)"><tspan
         sodipodi:role="line"
         id="tspan6220"
         x="365.88708"
         y="424.63501">Image Annotation</tspan></text>
    <text
       sodipodi:linespacing="125%"
       id="text6200"
       y="523.13538"
       x="355.673"
       style="font-size:10.93799019px;font-style:normal;font-variant:normal;font-weight:bold;font-stretch:normal;text-align:start;line-height:125%;letter-spacing:0px;word-spacing:0px;writing-mode:lr-tb;text-anchor:start;fill:#000000;fill-opacity:1;stroke:none;font-family:Consolas;-inkscape-font-specification:Consolas Bold"
       xml:space="preserve"
       transform="scale(0.97904693,1.0214015)"><tspan
         sodipodi:role="line"
         id="tspan6232"
         x="355.673"
         y="523.13538">ImageReferenceEntity</tspan><tspan
         sodipodi:role="line"
         id="tspan6234"
         x="355.673"
         y="536.80786"></tspan></text>
    <text
       sodipodi:linespacing="125%"
       id="text6210"
       y="446.51099"
       x="333.33096"
       style="font-size:9px;font-style:normal;font-variant:normal;font-weight:bold;font-stretch:normal;text-align:start;line-height:125%;letter-spacing:0px;word-spacing:0px;writing-mode:lr-tb;text-anchor:start;fill:#000000;fill-opacity:1;stroke:none;font-family:Consolas;-inkscape-font-specification:Consolas Bold"
       xml:space="preserve"
       transform="scale(0.97904693,1.0214015)"><tspan
         sodipodi:role="line"
         id="tspan6224"
         x="333.33096"
         y="446.51099">List&lt;ImagingObservationEntity&gt;</tspan></text>
    <rect
       style="fill:none;stroke:#000000;stroke-width:1.1641345;stroke-miterlimit:4;stroke-opacity:1;stroke-dasharray:none;stroke-dashoffset:0"
       id="rect6214"
       width="130.31175"
       height="135.02966"
       x="343.26254"
       y="412.0358"
       ry="20.123775"
       clip-path="none" />
    <rect
       transform="matrix(0.76491475,0,0,0.79800569,240.38486,93.995164)"
       clip-path="url(#clipPath4314)"
       ry="25.619593"
       y="398.54431"
       x="134.49564"
       height="140.58636"
       width="170.36115"
       id="rect6216"
       style="fill:#4a4945;fill-opacity:0.24888892;stroke:none" />
    <rect
       style="fill:#4a4945;fill-opacity:0.24888892;stroke:#000000;stroke-width:1.35816848;stroke-miterlimit:4;stroke-opacity:1;stroke-dasharray:none;stroke-dashoffset:0"
       id="rect6218"
       width="170.36115"
       height="140.58636"
       x="134.49564"
       y="398.54431"
       ry="25.619593"
       clip-path="url(#clipPath4314)"
       transform="matrix(0.76491475,0,0,0.79800569,240.38486,117.93533)" />
    <path
       inkscape:connector-curvature="0"
       id="path6222"
       d="m 422.38651,314.13281 -11.98924,94.44058"
       style="fill:none;stroke:#000000;stroke-width:1.79934132;stroke-linecap:butt;stroke-linejoin:miter;stroke-miterlimit:10;stroke-opacity:1;stroke-dasharray:none;marker-end:url(#Arrow1Mend)" />
    <text
       transform="scale(0.97904693,1.0214015)"
       xml:space="preserve"
       style="font-size:9px;font-style:normal;font-variant:normal;font-weight:bold;font-stretch:normal;text-align:start;line-height:125%;letter-spacing:0px;word-spacing:0px;writing-mode:lr-tb;text-anchor:start;fill:#000000;fill-opacity:1;stroke:none;font-family:Consolas;-inkscape-font-specification:Consolas Bold"
       x="372.14447"
       y="470.00818"
       id="text6226"
       sodipodi:linespacing="125%"><tspan
         sodipodi:role="line"
         id="tspan6230"
         x="372.14447"
         y="470.00818">List&lt;MarkupEntity&gt;</tspan></text>
    <path
       style="fill:#000000;fill-rule:nonzero"
       inkscape:connector-curvature="0"
       id="path6236"
       d="m 407.6994,498.37373 -1.57815,0 -8e-4,1.69288 1.57816,0 7.9e-4,-1.69288 z m -0.004,4.67598 -1.57813,0 -8e-4,1.6929 1.57816,0 8e-4,-1.6929 z m -0.004,4.67599 -1.57816,0 -7.9e-4,1.69289 1.57815,0 7.9e-4,-1.69289 z" />
    <rect
       transform="matrix(0.76491475,0,0,0.79800569,240.38486,141.93533)"
       clip-path="url(#clipPath4314)"
       ry="25.619593"
       y="398.54431"
       x="134.49564"
       height="140.58636"
       width="170.36115"
       id="rect6238"
       style="fill:#4a4945;fill-opacity:0.24888892;stroke:#000000;stroke-width:1.35816848;stroke-miterlimit:4;stroke-opacity:1;stroke-dasharray:none;stroke-dashoffset:0" />
    <rect
       style="fill:#4a4945;fill-opacity:0.24888892000000001;stroke:none;stroke-opacity:1"
       id="rect6240"
       width="170.36115"
       height="140.58636"
       x="134.49564"
       y="398.54431"
       ry="25.619593"
       clip-path="url(#clipPath4306)"
       transform="matrix(0.76491475,0,0,0.71505463,240.38486,127.05484)" />
    <text
       transform="scale(0.97904693,1.0214015)"
       xml:space="preserve"
       style="font-size:10.93799019px;font-style:normal;font-variant:normal;font-weight:bold;font-stretch:normal;text-align:start;line-height:125%;letter-spacing:0px;word-spacing:0px;writing-mode:lr-tb;text-anchor:start;fill:#000000;fill-opacity:1;stroke:none;font-family:Consolas;-inkscape-font-specification:Consolas Bold"
       x="355.673"
       y="523.13538"
       id="text6246"
       sodipodi:linespacing="125%"><tspan
         y="523.13538"
         x="355.673"
         id="tspan6248"
         sodipodi:role="line">ImageReferenceEntity</tspan><tspan
         y="536.80786"
         x="355.673"
         id="tspan6250"
         sodipodi:role="line"></tspan></text>
    <rect
       style="fill:#4a4945;fill-opacity:0.24888892;stroke:none"
       id="rect6258"
       width="170.36115"
       height="140.58636"
       x="134.49564"
       y="398.54431"
       ry="25.619593"
       clip-path="url(#clipPath4314)"
       transform="matrix(0.76491475,0,0,0.79800569,240.38486,93.995164)" />
    <rect
       transform="matrix(0.76491475,0,0,0.79800569,240.38486,117.93533)"
       clip-path="url(#clipPath4314)"
       ry="25.619593"
       y="398.54431"
       x="134.49564"
       height="140.58636"
       width="170.36115"
       id="rect6260"
       style="fill:#4a4945;fill-opacity:0.24888892;stroke:#000000;stroke-width:1.35816848;stroke-miterlimit:4;stroke-opacity:1;stroke-dasharray:none;stroke-dashoffset:0" />
    <rect
       style="fill:#4a4945;fill-opacity:0.24888892;stroke:#000000;stroke-width:1.35816848;stroke-miterlimit:4;stroke-opacity:1;stroke-dasharray:none;stroke-dashoffset:0"
       id="rect6268"
       width="170.36115"
       height="140.58636"
       x="134.49564"
       y="398.54431"
       ry="25.619593"
       clip-path="url(#clipPath4314)"
       transform="matrix(0.76491475,0,0,0.79800569,240.38486,141.93533)" />
    <rect
       transform="matrix(1,0,0,0.87663923,10.759651,-102.36702)"
       clip-path="url(#clipPath4306)"
       ry="25.619593"
       y="398.54431"
       x="134.49564"
       height="140.58636"
       width="170.36115"
       id="rect6270"
       style="fill:#4a4945;fill-opacity:0.24888892;stroke:none" />
    <rect
       transform="translate(10.759651,-152.42839)"
       clip-path="url(#clipPath4314)"
       ry="25.619593"
       y="398.54431"
       x="134.49564"
       height="140.58636"
       width="170.36115"
       id="rect6292"
       style="fill:#4a4945;fill-opacity:0.24888892;stroke:none" />
    <rect
       style="fill:#4a4945;fill-opacity:0.24888892;stroke:#000000;stroke-width:1.35816848;stroke-miterlimit:4;stroke-opacity:1;stroke-dasharray:none;stroke-dashoffset:0"
       id="rect6294"
       width="170.36115"
       height="140.58636"
       x="134.49564"
       y="398.54431"
       ry="25.619593"
       clip-path="url(#clipPath4314)"
       transform="translate(10.759651,-122.42839)" />
    <path
       style="fill:#000000;fill-opacity:0;fill-rule:nonzero"
       inkscape:connector-curvature="0"
       id="path6296"
       d="m 678.28142,238.39206 100.08234,0 0,39.00002 -100.08234,0 z" />
    <path
       d="m 740.49342,299.81319 0,-3.0097 3.377,0 0,3.0097 -3.377,0 z m 9.4192,0 0,-3.0097 3.37699,0 0,3.0097 -3.37699,0 z m 9.41919,0 0,-3.0097 3.377,0 0,3.0097 -3.377,0 z"
       id="path6298"
       inkscape:connector-curvature="0"
       style="fill:#000000;fill-rule:nonzero" />
    <path
       d="m 646.13823,275.64571 136.58964,0 0,19.90983 -136.58964,0 z"
       id="path6300"
       inkscape:connector-curvature="0"
       style="fill:#000000;fill-opacity:0;fill-rule:nonzero" />
    <rect
       style="fill:#4a4945;fill-opacity:0.24888892000000001;stroke:none;stroke-width:1.16012573000000008;stroke-opacity:1"
       id="rect6302"
       width="687.77606"
       height="72.278114"
       x="103.97902"
       y="552.61914"
       ry="0"
       clip-path="url(#clipPath4198)"
       transform="matrix(0.63166707,0,0,0.64011784,328.10491,-86.11846)" />
    <path
       style="fill:none;stroke:#000000;stroke-width:0.63587844px;stroke-linecap:butt;stroke-linejoin:miter;stroke-opacity:1"
       d="m 465.35207,283.85676 0,30.03264"
       id="path6304"
       inkscape:connector-curvature="0" />
    <path
       inkscape:connector-curvature="0"
       id="path6306"
       d="m 537.36212,283.85676 0,30.03264"
       style="fill:none;stroke:#000000;stroke-width:0.63587844px;stroke-linecap:butt;stroke-linejoin:miter;stroke-opacity:1" />
    <path
       style="fill:none;stroke:#000000;stroke-width:0.63587844px;stroke-linecap:butt;stroke-linejoin:miter;stroke-opacity:1"
       d="m 604.31882,283.85676 0,30.03264"
       id="path6308"
       inkscape:connector-curvature="0" />
    <path
       inkscape:connector-curvature="0"
       id="path6310"
       d="m 677.59221,283.85676 0,30.03264"
       style="fill:none;stroke:#000000;stroke-width:0.63587844px;stroke-linecap:butt;stroke-linejoin:miter;stroke-opacity:1" />
    <path
       style="fill:#000000;fill-rule:nonzero"
       inkscape:connector-curvature="0"
       id="path6342"
       d="m 722.79512,119.61952 0,-4.70179 5.34618,0 0,4.70179 -5.34618,0 z m 14.91165,0 0,-4.70179 5.34617,0 0,4.70179 -5.34617,0 z m 14.91164,0 0,-4.70179 5.34618,0 0,4.70179 -5.34618,0 z" />
    <path
       style="fill:#000000;fill-opacity:0;fill-rule:nonzero"
       inkscape:connector-curvature="0"
       id="path6344"
       d="m 573.42025,81.864793 216.23676,0 0,31.103357 -216.23676,0 z" />
    <rect
       transform="translate(69.937734,-483.28768)"
       clip-path="url(#clipPath4198)"
       ry="0"
       y="552.61914"
       x="103.97902"
       height="72.278114"
       width="687.77606"
       id="rect6346"
       style="fill:#4a4945;fill-opacity:0.24888892000000001;stroke:none;stroke-width:1.16012573000000008;stroke-opacity:1" />
    <path
       inkscape:connector-curvature="0"
       id="path6348"
       d="m 287.21543,94.692177 0,46.917363"
       style="fill:none;stroke:#000000;stroke-width:1px;stroke-linecap:butt;stroke-linejoin:miter;stroke-opacity:1" />
    <path
       style="fill:none;stroke:#000000;stroke-width:1px;stroke-linecap:butt;stroke-linejoin:miter;stroke-opacity:1"
       d="m 401.21543,94.692177 0,46.917363"
       id="path6350"
       inkscape:connector-curvature="0" />
    <path
       inkscape:connector-curvature="0"
       id="path6352"
       d="m 507.21543,94.692177 0,46.917363"
       style="fill:none;stroke:#000000;stroke-width:1px;stroke-linecap:butt;stroke-linejoin:miter;stroke-opacity:1" />
    <path
       style="fill:none;stroke:#000000;stroke-width:1px;stroke-linecap:butt;stroke-linejoin:miter;stroke-opacity:1"
       d="m 623.21543,94.692177 0,46.917363"
       id="path6354"
       inkscape:connector-curvature="0" />
    <text
       xml:space="preserve"
       style="font-size:10.93799019px;font-style:normal;font-variant:normal;font-weight:bold;font-stretch:normal;text-align:start;line-height:125%;letter-spacing:0px;word-spacing:0px;writing-mode:lr-tb;text-anchor:start;fill:#000000;fill-opacity:1;stroke:none;font-family:Consolas;-inkscape-font-specification:Consolas Bold"
       x="595.44617"
       y="500.86438"
       id="text6606"
       sodipodi:linespacing="125%"
       transform="scale(0.97904693,1.0214015)"><tspan
         sodipodi:role="line"
         id="tspan6696"
         x="595.44617"
         y="500.86438">ImageStudyEntity</tspan></text>
    <rect
       style="fill:#4a4945;fill-opacity:0.24888892;stroke:#000000;stroke-opacity:1"
       id="rect6636"
       width="170.36115"
       height="140.58636"
       x="134.49564"
       y="398.54431"
       ry="25.619593"
       clip-path="url(#clipPath4306)"
       transform="matrix(0.76491475,0,0,0.71505463,464.46456,205.95148)" />
    <rect
       clip-path="none"
       ry="19.181768"
       y="490.93243"
       x="567.34222"
       height="74.56131"
       width="130.31175"
       id="rect6652"
       style="fill:none;stroke:#000000;stroke-width:0.86505818;stroke-miterlimit:4;stroke-opacity:1;stroke-dasharray:none;stroke-dashoffset:0" />
    <rect
       style="fill:#4a4945;fill-opacity:0.24888892;stroke:none"
       id="rect6654"
       width="170.36115"
       height="140.58636"
       x="134.49564"
       y="398.54431"
       ry="25.619593"
       clip-path="url(#clipPath4314)"
       transform="matrix(0.76491475,0,0,0.79800569,464.46456,170.8918)" />
    <text
       sodipodi:linespacing="125%"
       id="text6658"
       y="523.75452"
       x="621.44843"
       style="font-size:9px;font-style:normal;font-variant:normal;font-weight:bold;font-stretch:normal;text-align:start;line-height:125%;letter-spacing:0px;word-spacing:0px;writing-mode:lr-tb;text-anchor:start;fill:#000000;fill-opacity:1;stroke:none;font-family:Consolas;-inkscape-font-specification:Consolas Bold"
       xml:space="preserve"
       transform="scale(0.97904693,1.0214015)"><tspan
         sodipodi:role="line"
         id="tspan6702"
         x="621.44843"
         y="523.75452">UID=</tspan></text>
    <path
       sodipodi:nodetypes="cc"
       style="fill:none;stroke:#000000;stroke-width:1.93974113;stroke-linecap:butt;stroke-linejoin:miter;stroke-miterlimit:10;stroke-opacity:1;stroke-dasharray:none;marker-end:url(#Arrow1Mend)"
       d="m 472.80751,527.98028 93.57358,-1.98509"
       id="path6698"
       inkscape:connector-curvature="0" />
  </g>
</svg>
